<?xml version="1.0" standalone="no"?>
<!DOCTYPE svg PUBLIC "-//W3C//DTD SVG 20010904//EN"
 "http://www.w3.org/TR/2001/REC-SVG-20010904/DTD/svg10.dtd">
<svg version="1.0" xmlns="http://www.w3.org/2000/svg"
 width="512.000000pt" height="512.000000pt" viewBox="0 0 512.000000 512.000000"
 preserveAspectRatio="xMidYMid meet">
<metadata>
Created by potrace 1.11, written by Peter Selinger 2001-2013
</metadata>
<g transform="translate(0.000000,512.000000) scale(0.100000,-0.100000)"
fill="#000000" stroke="none">
<path d="M1613 4889 c-48 -23 -89 -67 -110 -116 -8 -21 -13 -75 -13 -157 l0
-124 -257 -4 c-211 -4 -268 -8 -313 -23 -185 -59 -351 -200 -434 -369 -70
-141 -66 -35 -66 -1751 0 -1731 -5 -1610 73 -1759 77 -150 243 -295 395 -348
l67 -23 1605 0 1605 0 67 23 c152 53 318 198 395 348 78 149 73 28 73 1759 0
1716 4 1610 -66 1751 -83 169 -249 310 -434 369 -45 15 -102 19 -312 23 l-257
4 -3 137 c-3 131 -4 140 -31 179 -41 63 -97 95 -171 100 -76 5 -127 -17 -179
-78 -45 -52 -57 -103 -57 -234 l0 -106 -630 0 -630 0 0 106 c0 131 -12 182
-57 234 -69 80 -171 103 -260 59z m-121 -983 c3 -143 3 -144 34 -188 19 -26
53 -54 85 -71 47 -25 62 -28 113 -24 93 8 170 74 196 166 5 20 10 87 10 149
l0 112 630 0 630 0 0 -112 c0 -62 5 -129 10 -149 26 -92 103 -158 196 -166 51
-4 66 -1 113 24 32 17 66 45 85 71 31 44 31 44 34 189 l4 145 251 -4 c236 -3
255 -5 293 -25 77 -41 79 -48 82 -455 l3 -358 -1701 0 -1701 0 3 358 c3 326 5
360 22 395 20 40 59 66 116 78 19 4 137 7 262 8 l227 1 3 -144z m2768 -2118
c0 -645 -4 -996 -10 -1020 -15 -52 -52 -92 -98 -106 -57 -17 -3127 -17 -3184
0 -46 14 -83 54 -98 106 -6 24 -10 375 -10 1020 l0 982 1700 0 1700 0 0 -982z"/>
<path d="M1320 1741 l0 -642 218 1 c244 2 350 16 422 57 128 74 219 239 246
443 12 87 6 284 -10 360 -37 175 -118 300 -226 351 -114 54 -152 60 -412 66
l-238 5 0 -641z m422 406 c126 -32 178 -159 173 -422 -4 -186 -23 -266 -81
-334 -38 -45 -76 -62 -158 -68 l-72 -6 1 414 c1 228 3 417 3 422 3 11 82 8
134 -6z"/>
<path d="M3687 2045 c-63 -22 -96 -61 -139 -160 l-17 -40 -2 65 c-1 36 -1 82
-1 103 l1 37 -119 0 -120 0 0 -475 0 -475 134 0 133 0 0 233 c0 258 5 302 36
366 31 63 74 92 145 98 l58 5 -2 112 c-1 61 -2 119 -3 129 -1 21 -48 22 -104
2z"/>
<path d="M2367 2043 c-10 -17 1 -779 12 -812 32 -100 97 -144 218 -147 71 -2
89 1 134 23 33 17 63 42 83 70 l31 45 3 -61 3 -61 124 0 125 0 0 475 0 475
-134 0 -133 0 1 -302 c2 -403 -4 -436 -78 -457 -51 -14 -91 -3 -110 31 -16 27
-18 62 -17 379 l1 349 -130 0 c-71 0 -131 -3 -133 -7z"/>
</g>
</svg>
